<svg width="403" height="198" viewBox="0 0 403 198" fill="none" xmlns="http://www.w3.org/2000/svg">
<path d="M89.0542 29.93C113.034 30.15 133.384 44.45 133.384 71.07C133.384 97.69 113.034 112.1 89.0542 112.21C74.4242 112.21 59.7942 112.21 45.1642 112.21C21.1842 112.1 0.83418 97.69 0.83418 71.07C0.83418 44.45 21.1842 30.15 45.1642 29.93C50.4442 29.93 75.5242 29.93 89.0542 29.93ZM83.5542 93.51C96.8642 93.51 110.064 87.35 110.064 71.07C110.064 54.79 96.8642 48.74 83.5542 48.74C72.5542 48.74 61.6642 48.52 50.6642 48.74C37.3542 48.74 24.1542 54.79 24.1542 71.07C24.1542 87.35 37.3542 93.51 50.6642 93.51C61.5542 93.51 72.6642 93.62 83.5542 93.51ZM162.437 86.25V111H139.997C139.997 84.38 139.997 57.76 139.997 31.25C171.457 31.25 203.027 31.25 234.597 31.25C252.637 31.36 263.967 40.16 263.967 58.75C263.967 72.28 257.917 80.64 247.577 84.16L264.407 111H237.897L223.377 86.14C203.027 86.25 182.787 86.25 162.437 86.25ZM162.437 48.63V68.76C185.097 68.76 207.647 68.76 230.307 68.76C237.457 68.76 240.647 65.68 240.647 58.75C240.647 51.82 237.457 48.63 230.307 48.63C207.647 48.63 185.097 48.63 162.437 48.63ZM394.142 93.51V111C353.112 111 312.082 111 271.052 111C271.052 84.38 271.052 57.76 271.052 31.25H394.142V48.63C360.592 48.63 327.042 48.63 293.492 48.63V62.38C325.392 62.38 357.182 62.38 389.082 62.38V79.76C357.182 79.76 325.392 79.76 293.492 79.76V93.51C327.042 93.51 360.592 93.51 394.142 93.51Z" fill="white"/>
<path d="M147.284 163.112V129.64H157.972V164.2C157.972 166.717 159.273 168.125 161.876 168.424V177.704C152.148 177.704 147.284 172.84 147.284 163.112ZM177.937 177C170.769 177 167.185 173.523 167.185 166.568C167.185 159.613 170.769 156.136 177.937 156.136H185.297V153.064C185.297 152.509 185.02 152.232 184.465 152.232H170.961V146.28L175.441 142.952H185.233C192.401 142.952 195.985 146.536 195.985 153.704V177H177.937ZM177.873 166.888C177.873 167.443 178.15 167.72 178.705 167.72H185.297V164.2H178.705C178.15 164.2 177.873 164.477 177.873 165.032V166.888ZM204.415 177V129.64H215.103V142.952H223.487C230.655 142.952 234.239 146.536 234.239 153.704V166.248C234.239 173.416 230.655 177 223.487 177H204.415ZM215.103 167.72H222.719C223.273 167.72 223.551 167.443 223.551 166.888V153.064C223.551 152.509 223.273 152.232 222.719 152.232H215.103V167.72ZM241.327 173.672V167.72H256.047C256.729 167.72 257.071 167.251 257.071 166.312C257.071 165.331 256.751 164.776 256.111 164.648L249.583 163.56C244.079 162.621 241.327 159.357 241.327 153.768C241.327 146.557 244.911 142.952 252.079 142.952H261.615L266.095 146.28V152.232H252.911C252.228 152.232 251.887 152.701 251.887 153.64C251.887 154.877 252.228 155.539 252.911 155.624L259.439 156.712C264.9 157.608 267.631 160.765 267.631 166.184C267.631 173.395 264.047 177 256.878 177H245.807L241.327 173.672Z" fill="#1D8FFC"/>
</svg>
